<?xml version="1.0" encoding="UTF-8"?>
<svg id="Layer_2" data-name="Layer 2" xmlns="http://www.w3.org/2000/svg" viewBox="0 0 51.3 35.73">
  <defs>
    <style>
      .cls-1 {
        fill: #2c515b;
      }

      .cls-2 {
        fill: #133541;
      }

      .cls-3 {
        fill: #6b7f87;
      }
    </style>
  </defs>
  <g id="Layer_4" data-name="Layer 4">
    <g>
      <path class="cls-3" d="M22.65,21.13L2.43.91C.97,1.88,0,3.55,0,5.42v24.69c0,2.98,2.44,5.42,5.42,5.42h40.45c2.98,0,5.42-2.44,5.42-5.42V5.42c0-1.45-.58-2.78-1.52-3.75l-19.46,19.46c-2.11,2.11-5.56,2.11-7.67,0Z"/>
      <path class="cls-1" d="M5.56,35.73h40.45c1.11,0,2.14-.34,3-.91L29.24,14.6c-2.11-2.11-5.56-2.11-7.67,0L1.66,34.06c.99,1.03,2.37,1.67,3.9,1.67Z"/>
      <path class="cls-2" d="M45.87,0H5.42c-1.11,0-2.14.34-3,.91l20.22,20.22c2.11,2.11,5.56,2.11,7.67,0L49.77,1.67c-.99-1.03-2.37-1.67-3.9-1.67Z"/>
    </g>
  </g>
</svg>