<?xml version="1.0" encoding="UTF-8"?>
<svg xmlns="http://www.w3.org/2000/svg" xmlns:xlink="http://www.w3.org/1999/xlink" viewBox="0 0 220 158.88">
  <defs>
    <style>
      .cls-1 {
        fill: none;
      }

      .cls-2 {
        fill: #1b4f99;
      }

      .cls-3 {
        fill: #3a76cf;
      }

      .cls-4 {
        fill: #00b7ac;
      }

      .cls-5 {
        fill: #21488e;
      }

      .cls-6 {
        fill: #0e3e73;
      }

      .cls-7 {
        fill: #e08753;
      }

      .cls-8 {
        fill: #a3e0f6;
      }

      .cls-9 {
        fill: #ffa971;
      }

      .cls-10 {
        fill: #283a67;
      }

      .cls-11 {
        fill: #00a4a2;
      }

      .cls-12 {
        isolation: isolate;
      }

      .cls-13 {
        fill: #2e498d;
      }

      .cls-14 {
        fill: #fa9050;
      }

      .cls-15 {
        mix-blend-mode: multiply;
      }

      .cls-16 {
        fill: #008ac2;
      }

      .cls-17 {
        clip-path: url(#clippath-1);
      }

      .cls-18 {
        fill: #fff;
      }

      .cls-19 {
        fill: #f0f0f0;
      }

      .cls-20 {
        fill: #053663;
      }

      .cls-21 {
        fill: #00aff3;
      }

      .cls-22 {
        fill: #ffac73;
      }

      .cls-23 {
        fill: #cc9976;
      }

      .cls-24 {
        opacity: .4;
      }

      .cls-25 {
        fill: #cee3f8;
      }

      .cls-26 {
        fill: #f78640;
      }

      .cls-27 {
        fill: #548cc3;
      }

      .cls-28 {
        fill: #ee9358;
      }

      .cls-29 {
        fill: #edc2a1;
      }

      .cls-30 {
        fill: #a0c7ee;
      }

      .cls-31 {
        fill: #ff8e00;
      }

      .cls-32 {
        fill: #92c2f5;
      }

      .cls-33 {
        fill: #1c3965;
      }

      .cls-34 {
        fill: #fdae00;
      }

      .cls-35 {
        clip-path: url(#clippath);
      }

      .cls-36 {
        fill: #bcd8ff;
      }

      .cls-37 {
        fill: #ddefff;
      }
    </style>
    <clipPath id="clippath">
      <path class="cls-1" d="M123.78,10.97c-24.16-8.8-43.79-15.95-58.72-6.51-16.9,10.69-9.86,31.33-32.7,49.82-12.87,10.42-21.31,8.88-27.73,19.69-9.7,16.3-1.14,37.69-.51,39.2,15.87,38.17,94.42,62.57,148.08,31.67,25.37-14.6,55.16-47.31,48.28-78.75-6.46-29.54-41.9-42.45-76.7-55.13Z"/>
    </clipPath>
    <clipPath id="clippath-1">
      <polygon class="cls-1" points="-20.78 -34.99 -20.78 169.01 211.22 168.87 211.22 -34.99 -20.78 -34.99"/>
    </clipPath>
  </defs>
  <g class="cls-12">
    <g id="Layer_2" data-name="Layer 2">
      <g id="Layer_4" data-name="Layer 4">
        <g>
          <g class="cls-35">
            <g class="cls-17">
              <rect class="cls-8" x="-65.78" y="-36.99" width="324" height="165"/>
              <g class="cls-15">
                <g class="cls-24">
                  <g>
                    <rect class="cls-36" x="11.22" y="-1.99" width="11" height="132"/>
                    <rect class="cls-36" x="133.22" y="-1.99" width="9" height="132"/>
                    <rect class="cls-36" x="22.22" y="-1.99" width="120" height="3"/>
                    <rect class="cls-36" x="22.22" y="60.01" width="120" height="3"/>
                    <rect class="cls-36" x="22.22" y="113.01" width="120" height="3"/>
                    <g>
                      <rect class="cls-30" x="82.22" y="35.01" width="30" height="25" transform="translate(194.45 95.02) rotate(180)"/>
                      <rect class="cls-25" x="97.22" y="35.01" width="30" height="25" transform="translate(224.45 95.02) rotate(180)"/>
                      <polygon class="cls-32" points="82.22 54.01 87.31 54.01 86.9 52.51 87.31 52.01 82.22 52.01 82.22 54.01"/>
                      <polygon class="cls-37" points="97.22 43.01 102.21 43.01 101.79 41.76 102.21 41.01 97.22 41.01 97.22 43.01"/>
                      <polygon class="cls-32" points="97.22 41.01 92.75 41.01 93.17 42.14 92.75 43.01 97.22 43.01 97.22 41.01"/>
                      <polygon class="cls-37" points="127.22 54.01 122.58 54.01 123 55.43 122.58 56.01 127.22 56.01 127.22 54.01"/>
                      <rect class="cls-18" x="116.22" y="37.01" width="9" height="3"/>
                    </g>
                    <g>
                      <rect class="cls-36" x="44.22" y="35.01" width="30" height="25" transform="translate(118.45 95.02) rotate(180)"/>
                      <rect class="cls-25" x="59.22" y="35.01" width="30" height="25" transform="translate(148.45 95.02) rotate(180)"/>
                      <polygon class="cls-32" points="44.22 54.01 49.04 54.01 48.62 52.51 49.04 52.01 44.22 52.01 44.22 54.01"/>
                      <polygon class="cls-37" points="59.22 43.01 63.93 43.01 63.52 41.76 63.93 41.01 59.22 41.01 59.22 43.01"/>
                      <polygon class="cls-32" points="59.22 41.01 54.48 41.01 54.9 42.14 54.48 43.01 59.22 43.01 59.22 41.01"/>
                      <polygon class="cls-37" points="89.22 54.01 84.31 54.01 84.72 55.43 84.31 56.01 89.22 56.01 89.22 54.01"/>
                      <polygon class="cls-37" points="89.22 41.01 84.31 41.01 84.72 41.82 84.31 43.01 89.22 43.01 89.22 41.01"/>
                      <rect class="cls-18" x="62.22" y="52.01" width="14" height="5"/>
                    </g>
                    <g>
                      <rect class="cls-36" x="82.22" y="91.01" width="26" height="21" transform="translate(190.45 203.02) rotate(180)"/>
                      <rect class="cls-25" x="95.22" y="91.01" width="26" height="21" transform="translate(216.45 203.02) rotate(180)"/>
                      <polygon class="cls-32" points="82.22 107.01 86.37 107.01 86 105.84 86.37 105.01 82.22 105.01 82.22 107.01"/>
                      <polygon class="cls-37" points="95.22 98.01 99.37 98.01 99 96.84 99.37 96.01 95.22 96.01 95.22 98.01"/>
                      <polygon class="cls-32" points="95.22 96.01 91.08 96.01 91.44 97.18 91.08 98.01 95.22 98.01 95.22 96.01"/>
                      <polygon class="cls-37" points="121.22 107.01 117.08 107.01 117.44 108.18 117.08 109.01 121.22 109.01 121.22 107.01"/>
                      <rect class="cls-18" x="112.22" y="93.01" width="7" height="3"/>
                    </g>
                    <g>
                      <rect class="cls-36" x="33.22" y="88.01" width="30" height="25" transform="translate(96.45 201.02) rotate(180)"/>
                      <rect class="cls-25" x="48.22" y="88.01" width="30" height="25" transform="translate(126.45 201.02) rotate(180)"/>
                      <polygon class="cls-2" points="33.22 106.01 38.35 106.01 37.94 105.04 38.35 104.01 33.22 104.01 33.22 106.01"/>
                      <polygon class="cls-27" points="48.22 95.01 53.25 95.01 52.83 94.3 53.25 93.01 48.22 93.01 48.22 95.01"/>
                      <polygon class="cls-2" points="48.22 93.01 43.8 93.01 44.21 94.68 43.8 95.01 48.22 95.01 48.22 93.01"/>
                      <polygon class="cls-27" points="78.22 107.01 73.62 107.01 74.04 107.96 73.62 109.01 78.22 109.01 78.22 107.01"/>
                      <rect class="cls-18" x="67.22" y="90.01" width="9" height="3"/>
                    </g>
                    <g>
                      <rect class="cls-36" x="42.22" y="16.01" width="23" height="19" transform="translate(107.45 51.02) rotate(180)"/>
                      <rect class="cls-25" x="53.22" y="16.01" width="23" height="19" transform="translate(129.45 51.02) rotate(180)"/>
                      <polygon class="cls-32" points="42.22 31.01 45.63 31.01 45.31 29.59 45.63 29.01 42.22 29.01 42.22 31.01"/>
                      <polygon class="cls-37" points="53.22 23.01 57.02 23.01 56.7 21.37 57.02 21.01 53.22 21.01 53.22 23.01"/>
                      <polygon class="cls-32" points="53.22 21.01 49.79 21.01 50.11 21.66 49.79 23.01 53.22 23.01 53.22 21.01"/>
                      <polygon class="cls-37" points="76.22 31.01 72.59 31.01 72.91 31.82 72.59 33.01 76.22 33.01 76.22 31.01"/>
                      <rect class="cls-18" x="68.22" y="18.01" width="7" height="3"/>
                    </g>
                    <g>
                      <rect class="cls-36" x="82.22" y="16.01" width="23" height="19" transform="translate(187.45 51.02) rotate(180)"/>
                      <rect class="cls-25" x="94.22" y="16.01" width="23" height="19" transform="translate(211.45 51.02) rotate(180)"/>
                      <polygon class="cls-32" points="83.22 31.01 86.37 31.01 86.05 29.59 86.37 29.01 83.22 29.01 83.22 31.01"/>
                      <polygon class="cls-37" points="94.22 23.01 97.76 23.01 97.44 21.37 97.76 21.01 94.22 21.01 94.22 23.01"/>
                      <polygon class="cls-32" points="94.22 21.01 90.53 21.01 90.85 21.66 90.53 23.01 94.22 23.01 94.22 21.01"/>
                      <polygon class="cls-37" points="117.22 31.01 113.33 31.01 113.65 31.82 113.33 33.01 117.22 33.01 117.22 31.01"/>
                      <rect class="cls-18" x="108.22" y="18.01" width="7" height="3"/>
                    </g>
                  </g>
                </g>
                <g class="cls-24">
                  <g>
                    <rect class="cls-36" x="148.22" y="-1.99" width="11" height="132"/>
                    <rect class="cls-36" x="159.22" y="-1.99" width="120" height="3"/>
                    <rect class="cls-36" x="159.22" y="60.01" width="120" height="3"/>
                    <rect class="cls-36" x="159.22" y="113.01" width="120" height="3"/>
                    <g>
                      <rect class="cls-30" x="219.22" y="35.01" width="30" height="25" transform="translate(468.45 95.02) rotate(180)"/>
                      <polygon class="cls-32" points="219.22 54.01 224.37 54.01 223.95 52.51 224.37 52.01 219.22 52.01 219.22 54.01"/>
                    </g>
                    <g>
                      <rect class="cls-36" x="181.22" y="35.01" width="30" height="25" transform="translate(392.45 95.02) rotate(180)"/>
                      <rect class="cls-25" x="196.22" y="35.01" width="30" height="25" transform="translate(422.45 95.02) rotate(180)"/>
                      <polygon class="cls-32" points="181.22 54.01 186.09 54.01 185.68 52.51 186.09 52.01 181.22 52.01 181.22 54.01"/>
                      <polygon class="cls-37" points="196.22 43.01 200.99 43.01 200.57 41.76 200.99 41.01 196.22 41.01 196.22 43.01"/>
                      <polygon class="cls-32" points="196.22 41.01 191.54 41.01 191.95 42.14 191.54 43.01 196.22 43.01 196.22 41.01"/>
                      <rect class="cls-18" x="199.22" y="52.01" width="14" height="5"/>
                    </g>
                    <g>
                      <rect class="cls-36" x="219.22" y="91.01" width="26" height="21" transform="translate(464.45 203.02) rotate(180)"/>
                      <polygon class="cls-32" points="219.22 107.01 223.37 107.01 223 105.84 223.37 105.01 219.22 105.01 219.22 107.01"/>
                    </g>
                    <g>
                      <rect class="cls-36" x="170.22" y="88.01" width="30" height="25" transform="translate(370.45 201.02) rotate(180)"/>
                      <rect class="cls-25" x="185.22" y="88.01" width="30" height="25" transform="translate(400.45 201.02) rotate(180)"/>
                      <polygon class="cls-2" points="170.22 106.01 175.41 106.01 175 105.04 175.41 104.01 170.22 104.01 170.22 106.01"/>
                      <polygon class="cls-27" points="185.22 95.01 190.31 95.01 189.89 94.3 190.31 93.01 185.22 93.01 185.22 95.01"/>
                      <polygon class="cls-2" points="185.22 93.01 180.85 93.01 181.27 94.68 180.85 95.01 185.22 95.01 185.22 93.01"/>
                      <polygon class="cls-27" points="215.22 107.01 210.68 107.01 211.1 107.96 210.68 109.01 215.22 109.01 215.22 107.01"/>
                      <rect class="cls-18" x="204.22" y="90.01" width="9" height="3"/>
                    </g>
                    <g>
                      <rect class="cls-36" x="179.22" y="16.01" width="23" height="19" transform="translate(381.45 51.02) rotate(180)"/>
                      <rect class="cls-25" x="190.22" y="16.01" width="23" height="19" transform="translate(403.45 51.02) rotate(180)"/>
                      <polygon class="cls-32" points="179.22 31.01 182.69 31.01 182.37 29.59 182.69 29.01 179.22 29.01 179.22 31.01"/>
                      <polygon class="cls-37" points="190.22 23.01 194.08 23.01 193.76 21.37 194.08 21.01 190.22 21.01 190.22 23.01"/>
                      <polygon class="cls-32" points="190.22 21.01 186.85 21.01 187.17 21.66 186.85 23.01 190.22 23.01 190.22 21.01"/>
                      <polygon class="cls-37" points="213.22 31.01 209.65 31.01 209.97 31.82 209.65 33.01 213.22 33.01 213.22 31.01"/>
                      <rect class="cls-18" x="205.22" y="18.01" width="7" height="3"/>
                    </g>
                    <rect class="cls-36" x="219.22" y="16.01" width="23" height="19" transform="translate(461.45 51.02) rotate(180)"/>
                  </g>
                </g>
              </g>
              <rect class="cls-16" x="-65.78" y="127.01" width="324" height="54"/>
            </g>
          </g>
          <g>
            <g>
              <g>
                <path class="cls-26" d="M32.75,92.35l.92.75s2.51-.9,3.08,2.08c0,0,.15,1.27-.65,1.27-.81,0-.47-.14-1.61-.11-1.14.03-2.09-.57-2.25-1.49l-.55-.78,1.07-1.72Z"/>
                <path class="cls-6" d="M32.64,93.95c.73-.76.67-1.33.67-1.33,0,0-8.48-6.94-9.34-7.51-.59-.39-6.83-5.92-9.75-9.3-1.45-1.67-3.24-1.02-5.29-.44l-1.69.48c-2.04.59-2.57,3.44-.9,4.83,4.72,3.91,12.56,8.3,14.03,9.22,3.64,2.29,10.78,5.02,10.78,5.02,0,0,.87-.32,1.49-.98Z"/>
              </g>
              <path class="cls-33" d="M42.32,136.61s2.06,1.54,5.21.73c0,0,2.54-.58,3.1.69,0,0-3.9,1.98-4.89,2.52-.74.41-1.52,1.05-2.07,1.55-.43.39-1.11.34-1.48-.11-.17-.21-.37-.46-.58-.75-.6-.81-2-3.45-2-3.45l2.71-1.18Z"/>
              <path class="cls-5" d="M43.53,135.83s-1.25,2.89-4.15,2.36c0,0-5.9-4.88-9.95-9.94-1.32-1.64-2.44-3.31-3.09-4.83-2.69-6.22-9.93-15.49-14.54-20.19l11.53-4.17s3.69,7.43,8.61,16.55c3.54,6.57,7.72,14.03,11.6,20.22Z"/>
              <path class="cls-21" d="M44.2,80.95c.08-.72.1-1.42.07-2.12-.01-.32.16-.62.46-.76l3.41-1.58c.37-.17.54-.59.4-.97l-1.18-3.23c-.13-.36-.52-.57-.89-.48l-3.36.82c-.33.08-.67-.06-.85-.35-.77-1.25-1.73-2.38-2.85-3.33-.27-.23-.35-.62-.19-.94l.93-1.89c.18-.36.05-.8-.28-1.01l-2.88-1.83c-.34-.22-.79-.14-1.04.19l-2.02,2.66c-.62-.16-1.26-.27-1.92-.34-.88-.09-1.74-.11-2.59-.04-.32.03-.62-.15-.76-.44l-1.27-2.75c-.17-.37-.61-.55-.99-.41l-3.17,1.15c-.39.14-.61.55-.51.95l.69,2.81c.08.32-.05.66-.33.84-.9.58-1.73,1.26-2.47,2.03-.24.25-.61.31-.92.16l-3.07-1.51c-.36-.18-.8-.05-1.02.29l-1.82,2.87c-.22.35-.14.81.19,1.05l2.98,2.27c.25.19.36.52.28.82-.18.68-.31,1.38-.39,2.1-.04.38-.07.76-.08,1.14,0,.31-.19.59-.47.72l-3.27,1.52c-.36.17-.54.59-.4.97l1.16,3.19c.14.39.55.61.95.51l2.66-.65c.35-.09.72.08.89.4.66,1.27,1.51,2.44,2.52,3.45.24.24.31.61.16.92l-1.36,2.76c-.18.37-.06.82.29,1.04l2.86,1.81c.34.22.79.14,1.04-.19l1.98-2.6c.2-.27.55-.38.87-.28.77.22,1.57.38,2.39.47.44.05.88.07,1.32.08.3,0,.58.18.7.46l1.29,2.79c.18.38.61.56,1,.42l3.18-1.16c.38-.14.59-.54.5-.93l-.55-2.24c-.09-.35.08-.72.4-.89,1.63-.85,3.07-2.02,4.24-3.43.23-.28.62-.36.95-.2l2.48,1.22c.36.18.8.05,1.01-.29l1.82-2.87c.22-.35.14-.81-.19-1.06l-2.86-2.18c-.24-.18-.35-.48-.29-.78.07-.37.13-.76.17-1.14ZM33.43,86.38c-7.15,2.56-13.09-4.88-8.98-11.31.62-.97,2.01-2.08,3.08-2.48,7.16-2.64,13.15,4.76,9.12,11.2-.64,1.02-2.08,2.18-3.22,2.59Z"/>
              <path class="cls-33" d="M31.93,115.6l-2.5,12.64c-1.32-1.64-2.44-3.31-3.09-4.83-2.69-6.22-9.93-15.49-14.54-20.19l11.53-4.17s3.69,7.43,8.61,16.55Z"/>
              <path class="cls-33" d="M22.51,137.89s-.13,2.31,2.67,2.61c0,0,1.69.03,1.69,1.5h-8.21s-.24-.59-.29-1.86c-.04-.97.94-3.52.94-3.52l3.2,1.26Z"/>
              <path class="cls-5" d="M19.54,99.05s5.14,5.64,8.4,15.81c1.77,5.53-3.25,19.44-4.23,24.27,0,0-3.37.29-5.68-.61,0,0-.18-9.98,1.17-17.68.75-4.31-6.76-9.21-10.05-16.99-2.23-5.29.48-5.2,3.82-5.33l6.56.51Z"/>
              <path class="cls-9" d="M13.61,73.87c-2.86,1.61-8.71.13-8.71.13,0,0,2.38-2.72,1.3-7.09l2.24,1.14,2.41,1.22s.16.77.26,2.16c.03.36.05.76.07,1.19,1.47.44,2.42,1.25,2.42,1.25Z"/>
              <path class="cls-2" d="M24.09,98.76c0,.5-.58.74-.7.77-1.15.21-4.37,1.46-7.27,1.75-2.44.26-4.71.01-7.2-.49-.33-.07-1.1-.27-1.16-.59-.07-.35-9.6-19.44-2.19-27.64.17-.19,1.64.15,2.98.47,1.24.29,2.37.13,3.38-.28l1.25.66c1.54.86,4.46,3.91,4.8,6.3.17,1.22.87,2.12,1.07,3.19.07.4.15.78.23,1.16.15.74.31,1.44.47,2.11.44,1.81.9,3.37,1.35,4.72.48,1.43.95,2.62,1.37,3.61.55,1.29,1.01,2.25,1.3,2.99.2.52.32.93.32,1.26Z"/>
              <path class="cls-6" d="M23.77,97.5c-13.46-6.34-18.12-18.52-18.12-18.52,0,0,10.94,4.03,13.63,5.08.15.74.31,1.44.47,2.11.44,1.81.9,3.37,1.35,4.72.48,1.43.95,2.62,1.37,3.61.55,1.29,1.01,2.25,1.3,2.99Z"/>
              <g>
                <path class="cls-9" d="M31.65,93.82l1.16.43s2.33-1.65,3.78,1.03c0,0,.52,1.17-.31,1.42-.83.25-.53.01-1.7.4-1.17.39-2.32.11-2.76-.73l-.79-.58.61-1.98Z"/>
                <path class="cls-2" d="M32.6,95.47c.43-1.12.63-1.63.63-1.63,0,0-8.79-7.16-9.68-7.78-.61-.42-6.69-4.96-9.65-8.5-1.47-1.76-3.79-2.56-6.03-2.09l-1.85.39c-2.23.47-2.95,3.29-1.22,4.77,4.87,4.17,13.08,9.01,14.61,10.02,3.8,2.5,12.2,6,12.2,6,0,0,.65-.3.99-1.18Z"/>
              </g>
              <path class="cls-26" d="M11.12,71.43c-2.81.16-4.64-2.16-4.64-2.16,0,0,1.27-.7,1.96-1.22l2.41,1.22s.16.77.26,2.16Z"/>
              <path class="cls-9" d="M12.32,68.54s-4.26,3.06-6.12.37c-1.86-2.68-3.67-4.09-1.03-6.16,2.64-2.06,3.88-1.41,4.72-.67.84.74,3.48,5.59,2.42,6.45Z"/>
              <path class="cls-33" d="M10.34,59.67c-.15-1.03-.5-1.76-.5-1.76,0,0-.27,1.11-2.29.95-2.02-.15-5.23.2-6.3,2.5-.07.15-.13.3-.18.45-.19-.51-.24-1.28-.24-1.28-.38.99,0,2.23,0,2.23h0s-.01.07-.02.11c-.45.38-.82,1.55-.82,1.55.13-.33.46-.54.76-.67,0,1.79.72,3.55,2,4.07,1.87.76,1.85.18,3.73,1.43,0,0,.5-.62.16-1.04-.34-.42-1.64-1.03-.92-1.64.73-.61.99.08,1.26-.34.27-.42-1.07-1.64.65-2.79,1.72-1.15,2.86-2.75,2.71-3.78Z"/>
            </g>
            <g>
              <path class="cls-20" d="M208.84,138.25s.23,3.7.95,3.75c.1,0,3.63,0,3.63,0h4.52s-.03-1.11-1.35-1.34c-1.32-.23-3.53-1.16-4.33-2.9-.84-1.83-3.41.48-3.41.48Z"/>
              <path class="cls-11" d="M190.97,108.24c.64,1.22,1.39,2.36,2.16,3.44,2.37,3.34,4.96,6.1,5.41,8.7.09.52.23,1.08.42,1.67.19.6.42,1.22.69,1.87,1.01,2.44,2.51,5.17,4.02,7.66,2.6,4.3,5.04,7.88,5.04,7.88l4.48-.21c-.18-.5-2.13-6.43-4.75-13.68-1.06-2.94-2.19-6.07-3.28-9.09-.15-.4-.29-.8-.43-1.2-.33-.92-.66-1.83-.98-2.72-2.46-6.81-4.41-12.23-4.41-12.23,0,0-9.82-4.15-10.84-1.46-.84,2.22-.16,4.39,2.48,9.37Z"/>
              <path class="cls-33" d="M199.21,134.24s-1.64,1.52-1.32,2.6c.32,1.08,1.8,1.8,2,3.12.2,1.32,1,2.04,1.72,2.04h3.44s.53-.93-.75-1.21c-1.28-.28-1.76-1.83-1.68-3.28.08-1.44-.12-3.36-.12-3.36l-2.72-.64-.56.72Z"/>
              <path class="cls-4" d="M200.66,99.81s10.33,16.76,10.33,18.09c0,2.95-7.81,19.93-7.81,19.93,0,0-4.14-2.19-3.98-3.73,0,0,2.49-11.92,3.21-13.83.72-1.92-13.06-9.13-13.78-17.85l12.02-2.6Z"/>
              <path class="cls-28" d="M205.73,91.2s2.13,1.21,2.73,1.21c.6,0,2.94-.45,3.59-.12.65.33,1.83,1.67,2.06,2.11.4.79-1.6.44-2.55-.23-.14-.1-.31-.13-.47-.1-.49.11-1.51.29-2,.11-.66-.24-4.15-.52-4.15-.52l.8-2.47Z"/>
              <path class="cls-31" d="M189.52,74.7s2.21,15.7,5.87,17.1c1.8.69,9.78,2.27,12.14,2.42,0,0,.58-.47.44-2.38,0,0-8.35-3.07-9.54-4.74-1.77-2.48,1.1-10.14-1.12-12.47-2.22-2.33-5.95-3.33-7.78.06Z"/>
              <path class="cls-28" d="M198.15,73.71c-2.95.76-7.85-1.97-7.85-1.97,0,0,1.9-1.28,2.6-4.08.04-.14.07-.29.1-.43.31-.07.89-.19,1.52-.32l2.25,2.02s-.05.84-.33,2.28c-.05.25-.1.52-.17.81,1.21.75,1.88,1.7,1.88,1.7Z"/>
              <path class="cls-34" d="M187.67,85.94c.42,5.69-.13,14.34.35,15.83.41,1.29,5.13.52,7.01.09.7-.16,1.54-.39,2.41-.66,2.43-.75,5.08-1.83,5.37-2.63.01-.03.02-.06.03-.09.03-.12.02-.22,0-.33-.09-.41-.46-.85-.5-1.85-.05-1.12-.04-2.45-.08-3.87,0-.16,0-.34-.02-.5v-.06s0-.06,0-.09c-.04-1.59-.12-3.26-.22-4.91-.06-1.04-.13-2.07-.21-3.06-.21-2.55-.5-4.81-.88-6.25-.62-2.33-1.98-3.86-3.22-4.97l-.9-.77c-1,.22-2.19.07-3.26-.43-1.16-.55-1.56-.94-1.76-.8-2.68,2.07-4.6,8.39-4.1,15.35Z"/>
              <path class="cls-31" d="M197.45,101.21c2.43-.75,5.08-1.83,5.37-2.63.01-.03.02-.06.03-.09,0-.11,0-.22,0-.33-.09-.41-.46-.85-.5-1.85-.05-1.12-.04-2.45-.08-3.87,0-.16,0-.34-.02-.5v-.06s0-.06,0-.09l-9.83-12.52s-6.61,13.76,5.05,21.95Z"/>
              <path class="cls-7" d="M196.78,68.92s-.05.84-.33,2.28c-2.2-.71-3.2-2.7-3.53-3.54.04-.14.07-.29.1-.43.31-.07.89-.19,1.52-.32l2.25,2.02Z"/>
              <path class="cls-28" d="M197.08,70.19s-4.8-.8-4.26-3.78c.55-2.98.29-5.09,3.38-4.71,3.09.39,3.47,1.63,3.53,2.67.06,1.04-1.4,5.95-2.66,5.82Z"/>
              <g>
                <rect class="cls-3" x="217.77" y="84.4" width=".45" height="11.66" transform="translate(397.4 243.45) rotate(-161.99)"/>
                <rect class="cls-3" x="204.18" y="94.98" width="12.23" height=".73" transform="translate(418.5 195.17) rotate(-178.78)"/>
              </g>
              <path class="cls-28" d="M204.41,96.17s3.93,1.04,5.4.93c1.47-.11,2.7-.81,2.89-1.18.19-.37.58-1.01-.43-.9-1,.12-2.37.33-2.42.14-.04-.19.82-.17.82-.17,0,0,.26-.38-.07-.39-.33-.01-1.28-.27-1.64-.1-.35.18-.68.83-.94.81-.26-.03-3.29-1.36-3.29-1.36l-.33,2.22Z"/>
              <path class="cls-34" d="M190.49,75.34s.46,15.84,3.94,17.64c1.72.89,9.47,3.33,11.8,3.75,0,0,.63-.4.7-2.31,0,0-7.97-3.97-8.96-5.76-1.48-2.66,2.21-9.96.26-12.52-1.95-2.56-5.55-3.97-7.74-.8Z"/>
              <path class="cls-5" d="M192.91,67.65s-.06-1.02.58-1.61c0,0-.22-1.03.19-1.2.41-.17.49.69.68.56.19-.14,1.01-.78,1.37-1.72.36-.95,3.61.2,3.98.37s1.6-.46,1.83-.96c0,0-.68-.54-.98-.95-.3-.41-2.44-3.15-5.41-2.37-2.98.78-3.38,2.2-3.21,3.42.17,1.22-.24,4.05.98,4.46Z"/>
            </g>
            <path class="cls-21" d="M188.16,102.4l-9.3-5.61c-.77-.47-1.21-1.34-1.14-2.24.1-1.15.14-2.31.14-3.48,0-2.18-.15-4.31-.49-6.39-.15-.97.28-1.93,1.13-2.43l9.72-5.87c1.04-.62,1.43-1.94.89-3.05l-4.57-9.31c-.52-1.05-1.74-1.54-2.84-1.15l-9.82,3.57c-.95.37-2.03.05-2.67-.78-2.71-3.5-5.97-6.57-9.67-9.07-.89-.6-1.24-1.75-.87-2.76l2.18-5.97c.4-1.14-.09-2.42-1.19-2.96l-9.26-4.53c-.19-.09-.38-.17-.58-.2-.95-.2-1.96.23-2.46,1.09l-4.2,6.94-1.02,1.69c-1.91-.27-3.88-.41-5.85-.41-2.67,0-5.29.25-7.8.72-.96.18-1.93-.24-2.43-1.08l-4.72-7.83c-.65-1.07-2-1.47-3.12-.91l-7.12,3.5-2.04,1.01c-1.11.55-1.65,1.85-1.22,3.01l2.97,8.21c.36.95.07,2.01-.71,2.63-2.31,1.88-4.42,4.01-6.27,6.33-.18.19-.32.38-.47.58-.05.07-.11.13-.17.19-.65.7-1.66.92-2.56.59l-9.71-3.52c-.11-.05-.23-.07-.33-.09-1.04-.21-2.13.31-2.62,1.28l-4.53,9.22c-.55,1.11-.15,2.45.91,3.1l9.71,5.84c.83.49,1.26,1.43,1.1,2.38-.32,2.09-.49,4.23-.49,6.42,0,1.16.05,2.31.14,3.45.07.92-.38,1.81-1.17,2.29l-9.34,5.64c-1.03.62-1.42,1.93-.89,3.02l4.54,9.21c.55,1.11,1.84,1.65,3.02,1.22l7.77-2.82c1.04-.38,2.19,0,2.81.91,2.38,3.61,5.32,6.83,8.69,9.54.81.63,1.11,1.72.76,2.69l-3.18,8.75c-.43,1.17.11,2.48,1.22,3.03l9.18,4.51c1.1.55,2.44.14,3.06-.9l.25-.4,4.61-7.64c.52-.86,1.76-1.56,2.76-1.56h.01c2.38.43,4.83.65,7.35.65,1.34,0,2.65-.07,3.97-.19.91-.09,1.79.34,2.26,1.13l4.79,7.95c.65,1.09,2.04,1.49,3.16.94l9.17-4.51c.26-.13.49-.31.68-.5.6-.64.83-1.6.52-2.46l-2.39-6.55c-.28-.81-.12-1.71.41-2.35.14-.17.31-.32.5-.45,4.62-3.08,8.57-7.05,11.64-11.68.51-.79,1.46-1.17,2.37-1.02.13.02.26.06.39.11l7.84,2.85c1.14.42,2.42-.09,2.96-1.18l.11-.21,4.42-8.98c.55-1.14.14-2.49-.94-3.14ZM114.72,84.32c.45-1.6,1.07-3.22,1.87-4.85,1.54-3.09,5.34-6.92,8.45-8.45.33-.17.66-.32,1-.47,20.31-9.12,39.9,10.82,30.05,31.14-1.29,2.65-4.15,5.77-6.93,7.7-.65.44-1.29.83-1.9,1.11-2.83,1.37-5.65,2.18-8.4,2.49-15.67,1.74-28.56-12.66-24.14-28.68Z"/>
            <path class="cls-31" d="M189.29,134.11c.12-.25.03-.56-.21-.7l-2.08-1.25c-.17-.11-.27-.3-.25-.5.02-.26.03-.52.03-.78,0-.48-.03-.96-.11-1.41-.03-.22.06-.44.25-.55l2.17-1.31c.23-.14.32-.44.2-.68l-1.02-2.08c-.12-.24-.39-.35-.64-.26l-2.19.8c-.21.08-.45.01-.59-.17-.6-.78-1.32-1.46-2.14-2.01-.19-.13-.29-.41-.21-.63l.49-1.34c.09-.26-.02-.54-.27-.66l-2.07-1.01s-.08-.04-.13-.04c-.21-.04-.44.05-.55.24l-.94,1.55-.23.38c-.43-.06-.86-.09-1.31-.09-.59,0-1.18.06-1.74.16-.22.04-.43-.05-.55-.24l-1.05-1.75c-.14-.24-.45-.33-.7-.2l-1.59.78-.45.22c-.25.12-.37.41-.27.67l.66,1.83c.08.22,0,.45-.17.6-.51.42-.98.89-1.39,1.4-.04.04-.07.08-.11.13-.01.02-.02.03-.04.04-.15.16-.37.21-.57.13l-2.17-.79s-.05-.02-.07-.02c-.23-.05-.48.07-.58.29l-1.01,2.06c-.12.25-.03.55.2.69l2.17,1.3c.19.11.28.32.25.54-.07.46-.11.94-.11,1.43,0,.26.01.52.03.77.02.21-.08.4-.26.51l-2.08,1.26c-.23.14-.32.43-.2.68l1.01,2.05c.12.25.41.37.68.27l1.73-.63c.24-.09.5,0,.64.22.53.8,1.18,1.51,1.92,2.11.18.15.26.39.18.61l-.71,1.95c-.1.26.02.55.27.68l2.05,1.01c.25.12.54.03.68-.2l.06-.09,1.09-1.8c.12-.19.34-.29.56-.25h0c.53.1,1.08.15,1.64.15.3,0,.59-.02.89-.04.2-.02.4.08.5.25l1.07,1.78c.15.24.45.33.71.21l2.05-1.01c.06-.03.11-.07.15-.11.13-.14.19-.36.12-.55l-.53-1.46c-.06-.18-.03-.38.09-.52.03-.04.07-.07.11-.1,1.03-.69,1.91-1.57,2.6-2.61.11-.18.33-.26.53-.23.03,0,.06.01.09.02l1.75.64c.25.09.54-.02.66-.26l.02-.05.98-2ZM172.7,129.44c.1-.36.24-.72.42-1.08.34-.69,1.19-1.54,1.89-1.89.07-.04.15-.07.22-.11,4.53-2.04,8.9,2.41,6.71,6.95-.29.59-.93,1.29-1.55,1.72-.15.1-.29.19-.42.25-.63.31-1.26.49-1.88.56-3.5.39-6.37-2.82-5.39-6.4Z"/>
            <path class="cls-19" d="M110.25,36.27l-3.3-1.53c-.27-.13-.45-.4-.46-.7,0-.39-.04-.77-.08-1.16-.08-.73-.21-1.43-.39-2.11-.09-.32.02-.65.29-.85l3.02-2.3c.32-.24.41-.7.19-1.04l-1.86-2.93c-.21-.33-.63-.45-.99-.28l-3.14,1.54c-.3.16-.67.09-.91-.16-1.02-1.07-2.22-1.96-3.53-2.66-.32-.17-.48-.54-.4-.89l.51-2.06c.09-.39-.12-.8-.5-.94l-3.24-1.17c-.07-.02-.13-.04-.2-.05-.32-.03-.64.15-.78.45l-1.14,2.46-.28.6c-.64-.02-1.3,0-1.96.07-.89.1-1.75.27-2.57.52-.31.09-.65,0-.85-.27l-1.85-2.43c-.26-.33-.72-.42-1.07-.19l-2.24,1.42-.64.41c-.35.22-.48.67-.3,1.04l1.29,2.62c.15.3.1.67-.14.9-.7.71-1.33,1.49-1.86,2.33-.05.07-.09.14-.14.21-.01.03-.03.05-.05.07-.19.26-.52.37-.83.29l-3.35-.82s-.08-.02-.11-.02c-.35-.03-.7.18-.82.52l-1.17,3.23c-.14.39.04.82.42,1l3.44,1.59c.29.13.47.43.45.75-.03.71,0,1.42.07,2.15.04.39.1.77.17,1.14.06.3-.06.62-.31.8l-2.9,2.21c-.32.24-.4.69-.19,1.04l1.84,2.9c.22.35.67.48,1.05.3l2.48-1.22c.33-.16.73-.08.97.2.92,1.12,2.02,2.08,3.23,2.86.29.18.43.53.35.87l-.74,3.02c-.1.41.12.82.52.96l3.22,1.17c.39.14.82-.04.98-.41l.07-.14,1.33-2.86c.14-.31.45-.49.79-.46h0c.81.06,1.63.04,2.47-.05.45-.05.88-.12,1.31-.21.3-.06.61.05.79.29l1.88,2.47c.26.34.73.42,1.09.2l2.89-1.83c.08-.05.15-.12.21-.19.18-.23.22-.56.08-.84l-1.03-2.09c-.12-.26-.1-.56.05-.8.04-.06.09-.12.15-.17,1.43-1.19,2.59-2.65,3.45-4.3.14-.28.44-.44.75-.42.04,0,.09.01.13.02l2.72.67c.39.1.8-.12.94-.5l.03-.07,1.15-3.15c.14-.4-.04-.83-.42-1.01ZM85.19,33.02c.09-.55.24-1.11.45-1.68.4-1.08,1.53-2.49,2.51-3.11.1-.07.21-.13.31-.19,6.43-3.77,13.66,2.16,11.12,9.27-.33.93-1.17,2.07-2.03,2.81-.2.17-.4.32-.59.44-.89.56-1.8.93-2.7,1.13-5.15,1.14-9.95-3.18-9.06-8.67Z"/>
            <g>
              <g>
                <rect class="cls-34" x="56.22" y="118.01" width="24" height="6" rx="1.35" ry="1.35"/>
                <path class="cls-31" d="M80.22,122.06v.64c0,.72-.61,1.31-1.35,1.31h-21.3c-.74,0-1.35-.59-1.35-1.31v-.69h23.61c.13,0,.26.02.39.05Z"/>
                <path class="cls-29" d="M61.79,124.04l-.97,3.67h0s-4.04,15.29-4.04,15.29h-.42l2.33-12.69s0-.03,0-.04l1.15-6.27,1.94.03Z"/>
                <path class="cls-23" d="M61.75,124.04l-.96,3.62h0c-.06.03-1.8.93-2.09,2.53l1.14-6.18,1.91.03Z"/>
                <path class="cls-29" d="M80.95,143.01h-.43l-3.3-12.48h0s-.75-2.84-.75-2.84h0s-.97-3.68-.97-3.68l1.94-.03.66,3.59.49,2.69s0,.03,0,.04l2.34,12.71Z"/>
                <path class="cls-29" d="M74.08,128.45s0,0,0,0c0-.02,0-.01,0,0Z"/>
                <path class="cls-23" d="M77.75,127.51c-.35.51-.84,1.48-.87,2.91l-.74-2.79h0s-.96-3.62-.96-3.62l1.91-.03.65,3.54Z"/>
              </g>
              <g id="man">
                <path class="cls-11" d="M53.73,46.79c.49-.51.83-.32.83-.32,0,0,5.82,4.47,6.38,4.79.56.32,8.13.54,8.13.54,0,0,3.03-.03,3.77,1.52.64,1.35.19,2.52-.47,3.37-.79,1.02-2.12,1.44-3.36,1.08-2.78-.81-8.3-2.46-9.33-3.09-2.3-1.41-6.45-7.02-6.45-7.02,0,0,.13-.48.51-.88Z"/>
                <path class="cls-31" d="M60.01,42.76l-2.91-1.75c-.25-.15-.38-.42-.35-.71.03-.36.04-.72.04-1.08,0-.68-.05-1.34-.15-1.98-.05-.31.08-.61.35-.77l3.04-1.83c.33-.19.45-.61.28-.95l-1.43-2.91c-.16-.33-.54-.48-.89-.36l-3.07,1.11c-.3.11-.63.01-.83-.24-.84-1.09-1.85-2.04-3-2.82-.27-.18-.41-.57-.29-.88l.68-1.87c.13-.36-.03-.76-.37-.93l-2.89-1.41c-.06-.03-.12-.05-.18-.06-.3-.06-.61.07-.77.34l-1.31,2.17-.32.53c-.6-.09-1.21-.13-1.83-.13-.83,0-1.65.08-2.43.22-.3.06-.61-.07-.77-.34l-1.47-2.45c-.2-.33-.62-.46-.97-.29l-2.23,1.09-.64.31c-.35.17-.51.58-.38.94l.93,2.56c.11.3,0,.63-.24.84-.72.59-1.37,1.24-1.94,1.96-.06.06-.1.12-.15.18-.01.02-.03.04-.05.06-.2.22-.52.29-.8.19l-3.03-1.1s-.07-.02-.1-.03c-.33-.07-.67.1-.82.4l-1.41,2.88c-.17.35-.05.77.29.97l3.03,1.83c.26.15.39.45.34.74-.1.65-.15,1.32-.15,2.01,0,.36.01.71.04,1.06.02.29-.11.58-.37.73l-2.92,1.76c-.32.2-.44.6-.28.94l1.42,2.88c.17.35.58.51.95.38l2.43-.88c.33-.12.7.01.89.31.74,1.12,1.65,2.11,2.69,2.95.25.2.36.54.25.85l-.99,2.73c-.13.37.03.78.38.95l2.87,1.41c.34.17.76.04.96-.28l.08-.13,1.52-2.52c.16-.27.47-.41.78-.35h0c.74.13,1.51.2,2.3.2.42,0,.83-.02,1.24-.06.28-.03.56.11.71.35l1.5,2.49c.2.34.63.46.99.29l2.87-1.41c.08-.04.15-.1.21-.16.19-.2.26-.5.16-.77l-.75-2.05c-.09-.25-.04-.53.13-.73.04-.05.1-.1.16-.14,1.44-.96,2.68-2.2,3.64-3.65.16-.25.46-.37.74-.32.04,0,.08.02.12.03l2.45.89c.36.13.75-.03.92-.37l.03-.07,1.38-2.81c.17-.36.04-.78-.29-.98ZM37.06,36.91c.14-.5.33-1.01.58-1.51.48-.97,1.67-2.16,2.64-2.64.1-.05.21-.1.31-.15,6.35-2.85,12.47,3.38,9.39,9.73-.4.83-1.3,1.8-2.17,2.41-.2.14-.4.26-.59.35-.88.43-1.77.68-2.63.78-4.89.54-8.92-3.95-7.54-8.96Z"/>
                <path class="cls-22" d="M47.3,48.25s0-2.15-.33-2.77c-.34-.63-1.12-1.41-1.56-1.16-.44.25-.58,2.34-.44,2.72.14.38,1.14,1.78,1.14,1.78l1.19-.57Z"/>
                <path class="cls-10" d="M73.94,117.01c.48-.41.19-2.71.19-2.71,0,0-2.47-1.97-2.81-.46-.34,1.51-2.34,2.19-3.49,2.37-.76.12-1.01.53-1.1.8h7.2Z"/>
                <path class="cls-13" d="M74.22,114.83c-2.28.35-3.12-.19-3.12-.19.03-2.25-.66-7.32-1.62-13.15-1.25-7.68-2.95-16.67-4.03-22.21-.62-3.19-1.03-5.23-1.03-5.23l1.87-.04,9.31-.18s-.7,10.31-.51,15.39c.05,1.22.14,2.13.31,2.54,1.59,3.86-1.19,23.06-1.19,23.06Z"/>
                <path class="cls-10" d="M75.1,89.22c-1.26,2.37-4.43,8.46-5.61,12.27-1.25-7.68-2.95-16.67-4.03-22.21.05-2.09.3-3.92.84-5.27l9.31-.18s-.7,10.31-.51,15.39Z"/>
                <path class="cls-10" d="M66.1,117.01c.48-.41.19-2.71.19-2.71,0,0-2.47-1.97-2.81-.46-.34,1.51-2.34,2.19-3.49,2.37-.76.12-1.01.53-1.1.8h7.2Z"/>
                <path class="cls-13" d="M60.38,73.82s3.66,33.84,2.93,40.67c0,0,.78.61,3.09.47,0,0,4.18-19.5,3.29-22.65-.62-2.19,1.84-17.69,1.84-17.69l-11.15-.8Z"/>
                <path class="cls-22" d="M69.38,49.62s-4.65,2.32-6.96,1.26c0,0,.97-1.25,2.05-1.78-.02-.41-.04-.79-.04-1.12-.02-1.1.03-1.72.03-1.72l2.01-1.46,1.36-.99c-.08.61-.09,1.18-.06,1.7.18,2.68,1.6,4.1,1.6,4.1Z"/>
                <path class="cls-14" d="M67.78,45.52s-1.08,2.16-3.35,2.47c-.02-1.1.03-1.72.03-1.72l2.01-1.46c.88.33,1.31.71,1.31.71Z"/>
                <path class="cls-22" d="M63.95,46.13s4.16,1.48,5.05-1.12c.88-2.61,2.02-4.17-.61-5.23-2.62-1.06-3.48-.24-3.98.56-.51.8-1.52,5.34-.46,5.79Z"/>
                <path class="cls-4" d="M75.9,73.82c-.65,1.36-15.08,1.3-15.79.34-.29-.39-.62-4.28-.81-8.81-.1-2.51-.17-5.21-.15-7.62.02-3.93.24-7.08.8-7.32,3.09-1.34,5-2.19,9.04-2.07,1.25.04,2.37.76,2.92,1.88.97,2.01,2.35,5.57,2.45,9.77.16,6.48,2.37,12.12,1.55,13.83Z"/>
                <path class="cls-11" d="M63.81,55.06s-.47,6.77-4.51,10.29c-.1-2.51-.17-5.21-.15-7.62,1.21-1.62,2.8-2.78,4.67-2.67Z"/>
                <path class="cls-4" d="M65.79,48.49s-4.44.03-5.83,1.32c-1,.93-7.41,5.98-7.82,5.91-.41-.07-4.54-8.31-4.54-8.31,0,0-2.04.17-2.37,1.05,0,0,1.92,10.29,6.06,12.53,0,0,10.47-1.99,13.58-5.45,1.6-1.78.92-7.06.92-7.06Z"/>
                <path class="cls-5" d="M64.14,38.3s.25,2.49.99,3.17c.75.68.55,1.61.63,1.75.08.14.85-.26.99-.03.31.53-.18.91-.48,1.04-.31.13.79,2.26,1.59,2.34,1.39.14,3.55-3.72,3.73-4.85.24-1.48-.6-3.78-3-3.67-3.77.18-4.53-.64-4.46.25Z"/>
              </g>
            </g>
          </g>
        </g>
      </g>
    </g>
  </g>
</svg>