<?xml version="1.0" encoding="UTF-8"?>
<svg id="Layer_2" data-name="Layer 2" xmlns="http://www.w3.org/2000/svg" viewBox="0 0 18.8 18.07">
  <defs>
    <style>
      .cls-1 {
        fill: none;
        stroke: #fff;
        stroke-linecap: round;
        stroke-linejoin: round;
        stroke-width: .75px;
      }
    </style>
  </defs>
  <g id="Layer_1-2" data-name="Layer 1">
    <g id="Landmarks_Historical-Buildings_historical-building-tower" data-name="Landmarks / Historical-Buildings / historical-building-tower">
      <g id="Group_8" data-name="Group 8">
        <g id="historical-building-tower">
          <path id="Shape_57" data-name="Shape 57" class="cls-1" d="M15.41.38c.33,0,.6.26.6.58v4.62c0,.32-.27.58-.6.58H3.38c-.33,0-.6-.26-.6-.58V.95c0-.32.27-.58.6-.58h1.8c.33,0,.6.26.6.58v.58c0,.64.54,1.15,1.2,1.15s1.2-.52,1.2-1.16v-.58c0-.32.27-.58.6-.58h1.2c.33,0,.6.26.6.58v.58c0,.64.54,1.15,1.2,1.15s1.2-.52,1.2-1.16v-.58c0-.32.27-.58.6-.58h1.8Z"/>
          <path id="Shape_58" data-name="Shape 58" class="cls-1" d="M3.98,6.15l-1.2,11.55h13.23s-1.2-11.55-1.2-11.55H3.98Z"/>
          <path id="Shape_59" data-name="Shape 59" class="cls-1" d="M11.2,17.7h-3.61s0-4.04,0-4.04c0-.96.81-1.73,1.8-1.73s1.8.78,1.8,1.73v4.04Z"/>
          <path id="Shape_60" data-name="Shape 60" class="cls-1" d="M.38,17.7h18.05"/>
        </g>
      </g>
    </g>
  </g>
</svg>
