<?xml version="1.0" encoding="UTF-8"?>
<svg id="Layer_2" data-name="Layer 2" xmlns="http://www.w3.org/2000/svg" xmlns:xlink="http://www.w3.org/1999/xlink" viewBox="0 0 46.54 46.54">
  <defs>
    <style>
      .cls-1 {
        fill: #fff;
      }

      .cls-2 {
        fill: #14662b;
        filter: url(#drop-shadow-1);
      }
    </style>
    <filter id="drop-shadow-1" x="0" y="0" width="46.54" height="46.54" filterUnits="userSpaceOnUse">
      <feOffset dx="0" dy=".66"/>
      <feGaussianBlur result="blur" stdDeviation=".26"/>
      <feFlood flood-color="#000" flood-opacity=".25"/>
      <feComposite in2="blur" operator="in"/>
      <feComposite in="SourceGraphic"/>
    </filter>
  </defs>
  <g id="Layer_1-2" data-name="Layer 1">
    <g>
      <rect class="cls-2" x="0" y="0" width="46.54" height="46.54" rx="12.82" ry="12.82"/>
      <g>
        <path class="cls-1" d="M39.03,18.86l-10.42,10.42-.99.99c-1.07,1.07-2.35,1.93-3.78,2.4-.01,0-.02,0-.03.01-.94.3-1.95.46-2.99.46s-1.96-.15-2.88-.43c-.94-.29-1.82-.71-2.61-1.25-1.18-.8-2.18-1.85-2.92-3.08h0s3.94-3.95,3.94-3.95c.12.5.32.96.59,1.38.36.56.84,1.05,1.4,1.4.71.46,1.56.72,2.47.72,1.19,0,2.27-.45,3.09-1.19l.02-.02c.1-.09,13-13,13-13,.94,1.57,1.66,3.3,2.11,5.13Z"/>
        <circle class="cls-1" cx="10.9" cy="23.13" r="3.17"/>
      </g>
    </g>
  </g>
</svg>
