<?xml version="1.0" encoding="UTF-8"?>
<svg id="Layer_2" data-name="Layer 2" xmlns="http://www.w3.org/2000/svg" viewBox="0 0 24 21">
  <defs>
    <style>
      .cls-1 {
        opacity: .71;
      }

      .cls-2 {
        fill: none;
        stroke: #000;
        stroke-linecap: round;
        stroke-linejoin: round;
        stroke-width: 1.5px;
      }
    </style>
  </defs>
  <g id="Layer_4" data-name="Layer 4">
    <g id="Money-Payments-Finance_Finance_Savings_saving-piggy-bank" data-name="Money-Payments-Finance / Finance/Savings / saving-piggy-bank" class="cls-1">
      <g id="Group_54" data-name="Group 54">
        <g id="saving-piggy-bank">
          <path id="Shape_378" data-name="Shape 378" class="cls-2" d="M23.25,7.5c0,1.66-1.34,3-3,3"/>
          <path id="Shape_379" data-name="Shape 379" class="cls-2" d="M8.25,6c1.89-.94,4.11-.94,6,0"/>
          <path id="Shape_380" data-name="Shape 380" class="cls-2" d="M6.38,9c-.21,0-.38.17-.38.38s.17.38.38.38.38-.17.38-.38-.17-.38-.38-.38"/>
          <path id="Shape_381" data-name="Shape 381" class="cls-2" d="M7.9,2.88C6.73.76,3.75.75,3.75.75l.63,4.38c-.82.89-1.43,1.96-1.78,3.12H.75v6h2.49c.52.91,1.2,1.71,2.01,2.37v2.88c0,.41.34.75.75.75h1.5c.41,0,.75-.34.75-.75v-1.24c1.95.65,4.05.65,6,.01v1.23c0,.41.34.75.75.75h1.5c.41,0,.75-.34.75-.75v-2.86c1.87-1.49,2.98-3.74,3-6.14,0-6.49-7.05-9.39-12.35-7.62Z"/>
        </g>
      </g>
    </g>
  </g>
</svg>