<?xml version="1.0" encoding="UTF-8"?>
<svg id="Layer_2" data-name="Layer 2" xmlns="http://www.w3.org/2000/svg" viewBox="0 0 21 24">
  <defs>
    <style>
      .cls-1 {
        opacity: .71;
      }

      .cls-2 {
        fill: none;
        stroke: #000;
        stroke-linecap: round;
        stroke-linejoin: round;
        stroke-width: 1.5px;
      }
    </style>
  </defs>
  <g id="Layer_4" data-name="Layer 4">
    <g id="Interface-Essential_Hierarchy_Organization_hierarchy-5" data-name="Interface-Essential / Hierarchy/Organization / hierarchy-5" class="cls-1">
      <g id="Group_541" data-name="Group 541">
        <g id="hierarchy-5">
          <path id="Rectangle-path_208" data-name="Rectangle-path 208" class="cls-2" d="M3,1.5c0-.41.34-.75.75-.75h13.5c.41,0,.75.34.75.75v3c0,.41-.34.75-.75.75H3.75c-.41,0-.75-.34-.75-.75V1.5Z"/>
          <path id="Shape_2432" data-name="Shape 2432" class="cls-2" d="M10.5,5.25v13.5"/>
          <path id="Shape_2433" data-name="Shape 2433" class="cls-2" d="M3,18.75v-4.5c0-.83.67-1.5,1.5-1.5h12c.83,0,1.5.67,1.5,1.5v4.5"/>
          <path id="Oval_255" data-name="Oval 255" class="cls-2" d="M3,23.25c1.24,0,2.25-1.01,2.25-2.25s-1.01-2.25-2.25-2.25-2.25,1.01-2.25,2.25,1.01,2.25,2.25,2.25Z"/>
          <path id="Oval_256" data-name="Oval 256" class="cls-2" d="M10.5,23.25c1.24,0,2.25-1.01,2.25-2.25s-1.01-2.25-2.25-2.25-2.25,1.01-2.25,2.25,1.01,2.25,2.25,2.25Z"/>
          <path id="Oval_257" data-name="Oval 257" class="cls-2" d="M18,23.25c1.24,0,2.25-1.01,2.25-2.25s-1.01-2.25-2.25-2.25-2.25,1.01-2.25,2.25,1.01,2.25,2.25,2.25Z"/>
        </g>
      </g>
    </g>
  </g>
</svg>