<?xml version="1.0" encoding="UTF-8"?>
<svg id="Layer_2" data-name="Layer 2" xmlns="http://www.w3.org/2000/svg" xmlns:xlink="http://www.w3.org/1999/xlink" viewBox="0 0 36.79 36.79">
  <defs>
    <style>
      .cls-1 {
        filter: url(#drop-shadow-1);
      }

      .cls-2 {
        fill: #006c22;
      }

      .cls-3 {
        fill: #f5f8f7;
      }
    </style>
    <filter id="drop-shadow-1" x="0" y="0" width="36.79" height="37.79" filterUnits="userSpaceOnUse">
      <feOffset dx="0" dy="1"/>
      <feGaussianBlur result="blur" stdDeviation="0"/>
      <feFlood flood-color="#000" flood-opacity=".75"/>
      <feComposite in2="blur" operator="in"/>
      <feComposite in="SourceGraphic"/>
    </filter>
  </defs>
  <g id="Layer_1-2" data-name="Layer 1">
    <g id="SRjgbQ" class="cls-1">
      <g>
        <path class="cls-2" d="M0,18.3C0,15.34-.01,12.37.01,9.41c.02-2.26.92-4.18,2.41-5.83C3.92,1.91,5.65.6,7.96.25c.72-.11,1.44-.23,2.18-.23,5.41,0,10.83.07,16.24-.03,5.08-.09,9.36,3.62,10.17,8.41.03.19.06.39.07.58.21,5.97.2,11.95.12,17.92-.07,4.97-4.17,9.28-9,9.76-.83.08-1.66.11-2.49.12-5.05,0-10.09,0-15.14,0-4.98,0-9.3-3.67-10.07-8.57-.05-.29-.04-.59-.04-.88,0-3.01,0-6.03,0-9.04h0ZM22.19,17.19s0,.02,0,.03c2.28,0,4.56-.02,6.83.01.61,0,.73-.19.52-.73-.34-.87-.64-1.74-1.05-2.58-.28-.57-.6-.81-1.28-.8-3.92.04-7.84.03-11.76.01-1.2,0-2.31.25-3.39.8-2.82,1.44-4.39,4.35-4.09,7.67.26,2.9,2.47,5.49,5.33,6.4,4.81,1.53,10.59-2.13,9.8-8.49-.06-.53-.26-.76-.84-.73-.95.05-1.91.04-2.86,0-.64-.03-.8.08-.54.76.58,1.45.05,3.03-1.21,3.98-1.21.91-2.83.94-4.05.09-1.34-.94-1.86-2.5-1.35-4.08.44-1.35,1.85-2.34,3.32-2.34,2.2,0,4.41,0,6.61,0ZM21.11,6.97c-1.44,0-2.55,1.1-2.53,2.49.02,1.39,1.16,2.52,2.54,2.51,1.39,0,2.51-1.13,2.52-2.52,0-1.41-1.09-2.48-2.53-2.48Z"/>
        <path class="cls-3" d="M22.19,17.19c-2.2,0-4.41,0-6.61,0-1.48,0-2.89.99-3.32,2.34-.51,1.58,0,3.14,1.35,4.08,1.22.85,2.84.81,4.05-.09,1.27-.95,1.79-2.53,1.21-3.98-.27-.67-.11-.78.54-.76.95.04,1.91.05,2.86,0,.58-.03.78.2.84.73.78,6.36-5,10.02-9.8,8.49-2.86-.91-5.07-3.5-5.33-6.4-.3-3.32,1.27-6.23,4.09-7.67,1.08-.55,2.19-.8,3.39-.8,3.92.01,7.84.03,11.76-.01.68,0,1,.24,1.28.8.42.84.72,1.71,1.05,2.58.21.53.09.73-.52.73-2.28-.03-4.56-.01-6.83-.01,0-.01,0-.02,0-.03Z"/>
        <path class="cls-3" d="M21.11,6.97c1.44,0,2.54,1.07,2.53,2.48,0,1.4-1.13,2.52-2.52,2.52-1.39,0-2.53-1.12-2.54-2.51-.02-1.4,1.1-2.49,2.53-2.49Z"/>
      </g>
    </g>
  </g>
</svg>
