<?xml version="1.0" encoding="UTF-8"?>
<svg id="Layer_2" data-name="Layer 2" xmlns="http://www.w3.org/2000/svg" viewBox="0 0 34.63 25.8">
  <defs>
    <style>.cls-1 { fill: none; stroke: #7bbf32; stroke-linecap: round; stroke-linejoin: round; stroke-width: 1.5px; }</style>
  </defs>
  <g id="Layer_2-2" data-name="Layer 2">
    <g id="Users_Geomertric-Close-Up-Multiple-Users_multiple-man" data-name="Users / Geomertric-Close-Up-Multiple-Users / multiple-man">
      <g id="Group_493" data-name="Group 493">
        <g id="Regular_493" data-name="Regular 493">
          <path id="Shape_2028" data-name="Shape 2028" class="cls-1" d="M.75,25.05c0-5.49,4.45-9.94,9.94-9.94s9.94,4.45,9.94,9.94"/>
          <path id="Shape_2029" data-name="Shape 2029" class="cls-1" d="M5.45,3.74c2.92,3.02,7.4,3.92,11.25,2.26"/>
          <path id="Oval_714" data-name="Oval 714" class="cls-1" d="M10.69,12.9c3.35,0,6.07-2.72,6.07-6.07S14.04.75,10.69.75s-6.07,2.72-6.07,6.07,2.72,6.07,6.07,6.07Z"/>
          <path id="Shape_2030" data-name="Shape 2030" class="cls-1" d="M20.63,1.73c2.54-1.65,5.91-1.18,7.9,1.11,1.99,2.29,1.98,5.69,0,7.97-1.99,2.28-5.36,2.75-7.9,1.1"/>
          <path id="Shape_2031" data-name="Shape 2031" class="cls-1" d="M21.73,15.35c2.95-.67,6.04.04,8.4,1.93,2.36,1.89,3.74,4.74,3.74,7.77"/>
          <path id="Shape_2032" data-name="Shape 2032" class="cls-1" d="M20.63,5.29c1.6,1,3.45,1.54,5.34,1.53,1.37,0,2.73-.28,3.99-.82"/>
        </g>
      </g>
    </g>
  </g>
</svg>
