<?xml version="1.0" encoding="UTF-8"?>
<svg id="Layer_2" data-name="Layer 2" xmlns="http://www.w3.org/2000/svg" viewBox="0 0 38.59 37.11">
  <defs>
    <style>.cls-1 { fill: none; stroke: #7bbf32; stroke-linecap: round; stroke-linejoin: round; stroke-width: 1.5px; }</style>
  </defs>
  <g id="Layer_2-2" data-name="Layer 2">
    <g id="Business-Products_Monetization_Profits_monetization-user-laptop" data-name="Business-Products / Monetization/Profits / monetization-user-laptop">
      <g id="Group_139" data-name="Group 139">
        <g id="monetization-user-laptop">
          <path id="Shape_878" data-name="Shape 878" class="cls-1" d="M16.82,36.35H5.59"/>
          <path id="Shape_879" data-name="Shape 879" class="cls-1" d="M21.11,24.29c.22-.59.8-.99,1.46-.99h13.73c.49,0,.96.22,1.25.6.29.38.37.86.21,1.31l-3.96,11.15h-16.98l4.29-12.06Z"/>
          <path id="Shape_880" data-name="Shape 880" class="cls-1" d="M27.35,27.8c.91,0,1.65.71,1.65,1.58s-.74,1.58-1.65,1.58-1.65-.71-1.65-1.58.74-1.58,1.65-1.58"/>
          <path id="Shape_881" data-name="Shape 881" class="cls-1" d="M.75,36.36c0-3.4,1.68-6.59,4.53-8.6,2.85-2.01,6.52-2.61,9.9-1.6"/>
          <path id="Shape_882" data-name="Shape 882" class="cls-1" d="M6.02,13.46c3.26,3.25,8.28,4.21,12.6,2.43"/>
          <path id="Oval_93" data-name="Oval 93" class="cls-1" d="M11.88,23.3c3.75,0,6.8-2.92,6.8-6.53s-3.04-6.53-6.8-6.53-6.8,2.92-6.8,6.53,3.04,6.53,6.8,6.53Z"/>
          <path id="Shape_883" data-name="Shape 883" class="cls-1" d="M31.04,3.12h-4.33c-1.06,0-1.98.72-2.18,1.72-.2,1,.37,2,1.35,2.37l4.38,1.31c.98.38,1.55,1.37,1.35,2.37s-1.11,1.72-2.17,1.72h-5.2"/>
          <path id="Shape_884" data-name="Shape 884" class="cls-1" d="M27.95,3.12V.75"/>
          <path id="Shape_885" data-name="Shape 885" class="cls-1" d="M27.95,14.99v-2.37"/>
        </g>
      </g>
    </g>
  </g>
</svg>
