<?xml version="1.0" encoding="UTF-8"?>
<svg id="Layer_2" data-name="Layer 2" xmlns="http://www.w3.org/2000/svg" viewBox="0 0 30.83 28.73">
  <defs>
    <style>.cls-1 { fill: none; stroke: #7bbf32; stroke-linecap: round; stroke-linejoin: round; stroke-width: 1.5px; }</style>
  </defs>
  <g id="Layer_2-2" data-name="Layer 2">
    <g id="Business-Products_Business_cash-briefcase" data-name="Business-Products / Business / cash-briefcase">
      <g id="Group_2" data-name="Group 2">
        <g id="cash-briefcase">
          <path id="Shape_6" data-name="Shape 6" class="cls-1" d="M12.27,19.87c0,1.3,1.41,2.36,3.14,2.36s3.14-1.06,3.14-2.36-1.41-2.36-3.14-2.36-3.14-1.06-3.14-2.36,1.41-2.36,3.14-2.36,3.14,1.05,3.14,2.36"/>
          <path id="Shape_7" data-name="Shape 7" class="cls-1" d="M15.41,11.22v1.57"/>
          <path id="Shape_8" data-name="Shape 8" class="cls-1" d="M15.41,22.22v1.57"/>
          <path id="Rectangle-path_2" data-name="Rectangle-path 2" class="cls-1" d="M.75,9.13c0-1.16.94-2.09,2.09-2.09h25.14c1.16,0,2.09.94,2.09,2.09v16.76c0,1.16-.94,2.09-2.09,2.09H2.84c-1.16,0-2.09-.94-2.09-2.09V9.13Z"/>
          <path id="Shape_9" data-name="Shape 9" class="cls-1" d="M20.08,2.18c-.29-.86-1.09-1.43-1.99-1.43h-5.36c-.9,0-1.7.58-1.99,1.43l-1.62,4.85h12.57l-1.62-4.85Z"/>
        </g>
      </g>
    </g>
  </g>
</svg>
