<?xml version="1.0" encoding="UTF-8"?>
<svg id="Layer_2" data-name="Layer 2" xmlns="http://www.w3.org/2000/svg" viewBox="0 0 48.5 48.69">
  <defs>
    <style>
      .cls-1 {
        fill: #2c515b;
      }

      .cls-2 {
        fill: #133541;
      }

      .cls-3 {
        fill: #6b7f87;
      }

      .cls-4 {
        fill: #ddd;
      }

      .cls-5 {
        fill: #051426;
      }
    </style>
  </defs>
  <g id="Layer_4" data-name="Layer 4">
    <g>
      <path class="cls-2" d="M46.86,19.63c.88.83,1.43,1.96,1.43,3.2v21.07c0,2.55-2.29,4.63-5.09,4.63H5.25c-2.8,0-5.09-2.08-5.09-4.63v-21.07c0-1.6,1-2.89,2.28-3.85L22.28.94c1.4-1.27,3.68-1.25,5.05.05l19.53,18.64Z"/>
      <rect class="cls-4" x="3.56" y="6.32" width="41.79" height="41.63" rx="5.03" ry="5.03"/>
      <path class="cls-3" d="M5.09,48.53h37.95c1.47,0,2.79-.58,3.72-1.49L5.17,18.63c-.84-.57-1.96-.49-2.7.19l-.19.17c-1.28.97-2.28,2.25-2.28,3.85v21.07c0,2.55,2.29,4.63,5.09,4.63Z"/>
      <path class="cls-3" d="M43.41,48.55H5.46c-1.47,0-2.79-.58-3.72-1.49l41.99-28.76c.73-.5,1.7-.43,2.35.16l.36.32c1.28.97,2.07,2.45,2.07,4.06v21.07c0,2.55-2.29,4.63-5.09,4.63Z"/>
      <path class="cls-1" d="M5.38,48.69h37.95c1.04,0,2-.29,2.81-.78l-18.55-17.25c-1.98-1.8-5.22-1.8-7.2,0L1.72,47.27c.93.88,2.23,1.42,3.66,1.42Z"/>
      <rect class="cls-5" x="13.33" y="12.13" width="9.04" height="1.28" rx=".64" ry=".64"/>
      <rect class="cls-5" x="19.68" y="21.03" width="9.04" height="1.28" rx=".64" ry=".64"/>
      <rect class="cls-5" x="13.33" y="16.6" width="20.64" height="1.28" rx=".64" ry=".64"/>
    </g>
  </g>
</svg>