<?xml version="1.0" encoding="UTF-8"?>
<svg id="Layer_2" data-name="Layer 2" xmlns="http://www.w3.org/2000/svg" viewBox="0 0 54.36 35.49">
  <defs>
    <style>
      .cls-1 {
        fill: #133541;
      }

      .cls-2 {
        fill: #6b7f87;
      }
    </style>
  </defs>
  <g id="Layer_4" data-name="Layer 4">
    <g>
      <path class="cls-1" d="M46.76,29.29v-15.18c0-2.62-1.02-5.19-2.98-6.92-1.07-.95-2.19-1.55-3.06-1.93s-1.74-.54-2.66-.54h-11.19c-1.78,0-3.5-.68-4.8-1.91l-.83-.79c-1.38-1.31-3.21-2.03-5.11-2.03H6.2C2.77,0,0,2.77,0,6.2v23.1c0,3.42,2.77,6.2,6.2,6.2h34.37c3.42,0,6.2-2.77,6.2-6.2Z"/>
      <path class="cls-2" d="M40.57,35.49l-35.34-.17c-3.51,0-5.48-3.31-4.2-6.73l5.01-13.44c1.28-3.42,5.15-6.2,8.66-6.2h35.22c3.51,0,5.31,2.77,4.04,6.2l-5.01,13.44c-1.28,3.42-4.87,6.9-8.37,6.9Z"/>
    </g>
  </g>
</svg>